<?xml version="1.0" encoding="UTF-8"?><svg xmlns="http://www.w3.org/2000/svg" viewBox="0 0 352.09 106.46"><defs><style>.d{fill:#1d1d1b;}</style></defs><g id="a"/><g id="b"><g id="c"><g><path class="d" d="M53.23,0c-6.97,0-13.75,1.33-20.15,3.95-7.66,3.13-14.6,8.11-20.07,14.4C4.62,28.02,0,40.41,0,53.23c0,29.35,23.88,53.23,53.23,53.23,6.98,0,13.76-1.33,20.16-3.95,5.5-2.25,10.57-5.39,15.05-9.35,11.45-10.11,18.01-24.66,18.01-39.92C106.46,23.88,82.58,0,53.23,0Zm46.46,53.23c0,10.06-3.27,19.76-9.18,27.71-.18-.03-.37-.06-.56-.06h-14.46V41.13c0-5.94-2.32-11.52-6.52-15.73-3.39-3.4-7.69-5.54-12.36-6.25V6.9c24.04,1.74,43.08,21.84,43.08,46.32ZM30.98,18.88h-9.03c2.75-2.5,5.79-4.66,9.03-6.43v6.43Zm6.77,3.38V9.42c3.9-1.38,7.96-2.22,12.1-2.51V80.51c-2.85-.63-5.46-2.06-7.57-4.17-2.92-2.92-4.53-6.81-4.53-10.95V22.26Zm18.87,62V26.01c2.85,.63,5.47,2.06,7.57,4.17,2.93,2.93,4.54,6.82,4.54,10.95v55.91c-3.9,1.38-7.96,2.22-12.11,2.51v-15.29ZM6.77,53.23c0-9.97,3.21-19.63,9.08-27.58h15.13v39.75c0,5.95,2.31,11.53,6.51,15.73,3.4,3.4,7.7,5.53,12.36,6.24v12.18c-24.04-1.74-43.08-21.85-43.08-46.32Zm68.73,40.78v-6.36h8.93c-.15,.14-.3,.29-.46,.43-2.61,2.3-5.45,4.28-8.47,5.94Z"/><g><path class="d" d="M168.92,37.06v-6.26h-17.49v-12.11h-7.81v12.11h-8.3v6.26h8.3v26.86c0,17.18,5.86,23.54,19.63,23.54,1.47,0,3.55-.21,5.38-.51v-6.43c-2.25,.38-3.43,.49-4.49,.49-9.47,0-12.71-4.49-12.71-17.77v-26.18h17.49Z"/><path class="d" d="M172.4,53.82h26.73v6.47h-26.73v-6.47Z"/><path class="d" d="M217.49,40.97v-10.15h-7.62v55.87h7.62v-28.92c0-14.16,5.77-22.16,19.33-19.63v-7.66c-11.36-1.4-17.06,4.04-19.33,10.49Z"/><path class="d" d="M238.79,58.75c0-17.19,11.33-29.01,27.84-29.01s27.93,12.31,26.76,30.47h-46.98c.29,12.99,8.2,20.8,20.8,20.8,8.89,0,14.65-3.32,18.17-9.67l7.03,1.56c-4.79,9.67-13.09,14.85-25.3,14.85-17.19,0-28.33-11.53-28.33-29.01Zm47.27-4.98c-.68-10.74-7.91-17.58-19.34-17.58s-18.66,6.54-20.02,17.58h39.36Z"/><path class="d" d="M319.18,57.28l-21-26.47h9.28l16.41,20.9,16.31-20.9h9.47l-21.1,26.47,23.54,29.4h-9.18l-18.95-24.13-19.24,24.13h-9.28l23.73-29.4Z"/></g></g></g></g></svg>