<svg xmlns="http://www.w3.org/2000/svg" viewBox="0 0 618.64 351.42"><defs><style>.cls-1{fill:#00e15f;}.cls-2{fill:#26332b;}.cls-3{fill:none;}</style></defs><g id="Layer_2" data-name="Layer 2"><g id="Layer_1-2" data-name="Layer 1"><path class="cls-1" d="M160.67,123.21a39.59,39.59,0,0,0-22.28-68.68,39.61,39.61,0,0,0-72.23,0A39.8,39.8,0,0,0,30.88,93.9a39.22,39.22,0,0,0,13,29.31,39.71,39.71,0,0,0,58.41,42.87,39.77,39.77,0,0,0,58.4-42.87Zm-15.5-8.3c.32.45.63.91.93,1.39.11.18.23.36.34.55.36.61.7,1.23,1,1.86.05.09.1.19.14.28a28,28,0,0,1-7.64,2.89,5.69,5.69,0,0,1-5.51-1.76,5.75,5.75,0,0,1-1.25-5.74,5.83,5.83,0,0,1,4.35-3.93,5.76,5.76,0,0,1,1.28-.14,5.52,5.52,0,0,1,4.17,1.86c.67.74,1.31,1.52,1.9,2.32h0C145,114.63,145.07,114.77,145.17,114.91ZM130.81,70.82h0a29.49,29.49,0,0,1-.15,3,5.64,5.64,0,0,1-3.37,4.62,5.79,5.79,0,0,1-5.83-.59,5.73,5.73,0,0,1-2.4-5.35,5.67,5.67,0,0,1,3.39-4.69,28.18,28.18,0,0,1,7.86-2.21A28.19,28.19,0,0,1,130.81,70.82Zm-57.08,0a28.19,28.19,0,0,1,.49-5.23,28.18,28.18,0,0,1,7.86,2.21,5.83,5.83,0,0,1,1,10,5.81,5.81,0,0,1-5.84.59,5.61,5.61,0,0,1-3.36-4.62,26.84,26.84,0,0,1-.16-3ZM42,93.9A28.69,28.69,0,0,1,62.9,66.4c0,.12,0,.24,0,.36v0a38.72,38.72,0,0,0-.22,4A40.85,40.85,0,0,0,62.86,75a16.61,16.61,0,0,0,9.85,13.58,17,17,0,0,0,7,1.51,16.93,16.93,0,0,0,6.89-32.38,40.24,40.24,0,0,0-8.1-2.6,28.91,28.91,0,0,1,7.77-7.86,28.53,28.53,0,0,1,39.81,7.86,39.62,39.62,0,0,0-8.1,2.6,16.94,16.94,0,0,0,6.89,32.38,17,17,0,0,0,7-1.51A16.6,16.6,0,0,0,141.68,75a38.14,38.14,0,0,0,.22-4.14,38.72,38.72,0,0,0-.22-4v0c0-.12,0-.24,0-.36a28.69,28.69,0,0,1,20.94,27.5,28.27,28.27,0,0,1-6.27,17.87c-.1-.17-.2-.33-.29-.5a.61.61,0,0,1-.07-.1,39.13,39.13,0,0,0-4.77-6.45,16.61,16.61,0,0,0-16-5.1,16.93,16.93,0,0,0,3.44,33.48,17.23,17.23,0,0,0,3.69-.4,39.89,39.89,0,0,0,8-2.7,27.46,27.46,0,0,1,0,3c-.05.89-.15,1.8-.28,2.7a28.53,28.53,0,0,1-38,22.5,39.72,39.72,0,0,0,5-6.9,16.9,16.9,0,0,0-14.65-25.24h-.28a16.91,16.91,0,0,0-14.66,25.24,39.26,39.26,0,0,0,5,6.9,28.53,28.53,0,0,1-38-22.5c-.13-.9-.22-1.8-.28-2.69s0-2,0-3a40.1,40.1,0,0,0,8.05,2.7,17.25,17.25,0,0,0,3.7.4,16.93,16.93,0,1,0-12.55-28.39c-.93,1-1.81,2.1-2.63,3.21s-1.47,2.13-2.13,3.23l-.09.14-.27.47A28.26,28.26,0,0,1,42,93.9Zm65.34,46.24a5.62,5.62,0,0,1,0,5.71,29.15,29.15,0,0,1-1.65,2.5,28.83,28.83,0,0,1-3.35,3.79,28.19,28.19,0,0,1-3.36-3.79,29.15,29.15,0,0,1-1.65-2.5,5.62,5.62,0,0,1,0-5.71,5.73,5.73,0,0,1,10.07,0Zm-50.24-21.4c.32-.65.66-1.28,1-1.9l.34-.53c.3-.48.62-1,.94-1.42l.28-.39h0c.59-.8,1.23-1.58,1.9-2.32A5.63,5.63,0,0,1,67,110.45a5.86,5.86,0,0,1,3.11,9.67,5.69,5.69,0,0,1-5.52,1.76A28,28,0,0,1,56.94,119Z"/><path class="cls-2" d="M247.88,57.87c0-8.91-4.65-12-11.83-12a18.3,18.3,0,0,0-14.63,7.58v43.2H204.54V32.48h16.88v8.37a29.42,29.42,0,0,1,22.47-10c14.09,0,20.87,8,20.87,20.47V96.68H247.88Z"/><path class="cls-2" d="M305.3,30.88c19.15,0,32.18,14.36,32.18,35.36V70H289.75c1.06,8.11,7.58,14.89,18.48,14.89,6,0,13-2.39,17.15-6.38l7.44,10.9c-6.38,5.85-16.48,8.91-26.45,8.91-19.54,0-34.3-13.16-34.3-33.77C272.07,45.9,285.76,30.88,305.3,30.88ZM289.48,58.53h31.64c-.4-6.11-4.65-14.23-15.82-14.23C294.8,44.3,290.28,52.15,289.48,58.53Z"/><path class="cls-2" d="M388.84,53,375.28,96.68H357.2l-19.54-64.2h17.55l12,43.2,14.1-43.2h15l14.09,43.2,12-43.2h17.54l-19.54,64.2h-18Z"/><path class="cls-2" d="M234.45,130.58c13.16,0,21.14,5.71,25.4,11.56l-11,10.37c-3.06-4.52-7.71-6.91-13.56-6.91-10.24,0-17.41,7.44-17.41,18.61S225,183,235.25,183A16.19,16.19,0,0,0,248.81,176l11,10.24c-4.26,6-12.24,11.7-25.4,11.7-19.81,0-34-14-34-33.77S214.64,130.58,234.45,130.58Z"/><path class="cls-2" d="M261.43,164.21c0-18.21,12.77-33.63,33.9-33.63,21.28,0,34,15.42,34,33.63S316.61,198,295.33,198C274.2,198,261.43,182.56,261.43,164.21Zm50.39,0c0-10-6-18.61-16.49-18.61S279,154.24,279,164.21,284.83,183,295.33,183,311.82,174.31,311.82,164.21Z"/><path class="cls-2" d="M339.86,180.43v-33.5H329.23V132.17h10.63V114.62h17v17.55h13v14.76h-13v29c0,4,2.13,7,5.85,7a9.24,9.24,0,0,0,5.85-1.86l3.59,12.77c-2.53,2.26-7.05,4.12-14.1,4.12C346.24,198,339.86,191.86,339.86,180.43Z"/><path class="cls-2" d="M379.48,180.43v-33.5H368.84V132.17h10.64V114.62h17v17.55h13v14.76h-13v29c0,4,2.13,7,5.85,7a9.22,9.22,0,0,0,5.85-1.86l3.59,12.77c-2.53,2.26-7,4.12-14.09,4.12C385.86,198,379.48,191.86,379.48,180.43Z"/><path class="cls-2" d="M411.64,164.21c0-18.21,12.76-33.63,33.9-33.63s34,15.42,34,33.63S466.81,198,445.54,198,411.64,182.56,411.64,164.21Zm50.39,0c0-10-6-18.61-16.49-18.61s-16.35,8.64-16.35,18.61S435,183,445.54,183,462,174.31,462,164.21Z"/><path class="cls-2" d="M530.09,157.56c0-8.9-4.66-12-11.84-12a18.28,18.28,0,0,0-14.62,7.58v43.2H486.75V132.17h16.88v8.38a29.39,29.39,0,0,1,22.47-10c14.09,0,20.87,8,20.87,20.47v45.33H530.09Z"/><path class="cls-2" d="M204.54,320.54V231.87h16.88V240a24.82,24.82,0,0,1,19.81-9.71c16.49,0,28.45,12.23,28.45,33.64s-12,33.76-28.45,33.76a24.57,24.57,0,0,1-19.81-9.83v32.7Zm31.37-75.25c-5.44,0-11.69,3.2-14.49,7.32v22.73c2.8,4,9.05,7.31,14.49,7.31,9.71,0,16.22-7.58,16.22-18.74S245.62,245.29,235.91,245.29Z"/><path class="cls-2" d="M275.44,231.87h16.88v8.77c4.52-5.71,12.5-10.23,20.48-10.23v16.48a21.76,21.76,0,0,0-4.65-.53c-5.59,0-13,3.19-15.83,7.31v42.41H275.44Z"/><path class="cls-2" d="M313.86,263.91c0-18.21,12.76-33.64,33.9-33.64s34,15.43,34,33.64-12.76,33.76-34,33.76S313.86,282.25,313.86,263.91Zm50.38,0c0-10-6-18.62-16.48-18.62s-16.36,8.65-16.36,18.62,5.85,18.74,16.36,18.74S364.24,274,364.24,263.91Z"/><path class="cls-2" d="M405.84,297.81c0,14.62-7.44,24.33-22.86,24.33a35.91,35.91,0,0,1-7.31-.67l1.06-13.82a18.08,18.08,0,0,0,3.72.39c4.92,0,8.51-3.06,8.51-10.23V231.87h16.88ZM387.23,215.1a10.11,10.11,0,1,1,10.1,10.1A10.19,10.19,0,0,1,387.23,215.1Z"/><path class="cls-2" d="M446.39,230.27c19.14,0,32.17,14.36,32.17,35.37v3.72H430.83c1.07,8.11,7.58,14.89,18.48,14.89,6,0,13-2.4,17.15-6.38l7.45,10.9c-6.39,5.85-16.49,8.9-26.46,8.9-19.54,0-34.3-13.16-34.3-33.76C413.15,245.29,426.84,230.27,446.39,230.27Zm-15.82,27.65h31.64c-.4-6.11-4.66-14.22-15.82-14.22C435.88,243.7,431.36,251.54,430.57,257.92Z"/><path class="cls-2" d="M516.79,230.27c13.16,0,21.14,5.72,25.4,11.57l-11,10.37a15.58,15.58,0,0,0-13.56-6.92c-10.24,0-17.41,7.45-17.41,18.62s7.17,18.74,17.41,18.74a16.22,16.22,0,0,0,13.56-6.91l11,10.24c-4.26,6-12.24,11.69-25.4,11.69-19.81,0-34-14-34-33.76S497,230.27,516.79,230.27Z"/><path class="cls-2" d="M555.45,280.13v-33.5H544.82V231.87h10.63V214.32h17v17.55h13v14.76h-13v29c0,4,2.13,7,5.85,7a9.24,9.24,0,0,0,5.85-1.86l3.59,12.76c-2.53,2.26-7,4.12-14.1,4.12C561.83,297.67,555.45,291.56,555.45,280.13Z"/><rect class="cls-3" width="618.64" height="351.42"/></g></g></svg>